<?xml version="1.0" standalone="no"?>
<!DOCTYPE svg PUBLIC "-//W3C//DTD SVG 20010904//EN"
 "http://www.w3.org/TR/2001/REC-SVG-20010904/DTD/svg10.dtd">
<svg version="1.0" xmlns="http://www.w3.org/2000/svg"
 width="300.000000pt" height="300.000000pt" viewBox="0 0 300.000000 300.000000"
 preserveAspectRatio="xMidYMid meet">
<metadata>
Created by potrace 1.10, written by Peter Selinger 2001-2011
</metadata>
<g transform="translate(0.000000,300.000000) scale(0.100000,-0.100000)"
fill="#ff7b00" stroke="none">
<path d="M1070 2857 c0 -4 27 -42 60 -84 53 -69 60 -83 60 -123 0 -52 -18 -83
-60 -105 -70 -36 -126 -13 -206 85 -31 39 -60 70 -64 70 -14 0 -32 -100 -26
-142 13 -83 74 -161 151 -194 23 -10 70 -18 113 -19 81 -1 76 2 150 -95 l50
-64 -66 -26 c-71 -27 -258 -125 -267 -139 -2 -5 -30 -118 -61 -252 -31 -134
-64 -262 -73 -285 -22 -48 -46 -64 -456 -294 -386 -216 -375 -209 -375 -220 0
-6 4 -10 9 -10 10 0 192 97 300 159 36 21 158 91 271 155 113 64 217 127 232
140 48 42 61 83 133 401 38 168 44 184 87 211 45 29 205 109 234 118 12 4 29
15 38 25 20 22 14 40 -39 107 -74 94 -79 97 -158 101 -86 4 -127 16 -168 50
-53 45 -94 157 -72 198 8 14 17 8 56 -38 75 -88 144 -108 222 -64 47 26 75 76
75 133 0 32 -9 55 -40 100 -36 52 -38 59 -21 62 53 9 143 -59 177 -133 28 -59
30 -90 8 -145 -9 -22 -14 -50 -10 -62 3 -13 43 -72 88 -133 76 -101 87 -111
132 -126 31 -9 58 -26 72 -45 33 -44 155 -357 143 -369 -19 -19 -107 -8 -172
23 -134 62 -173 139 -137 271 15 56 5 65 -17 15 -26 -58 -25 -174 3 -211 64
-85 248 -160 328 -133 20 6 38 15 40 19 3 4 -31 94 -74 201 -87 213 -111 248
-176 257 -36 5 -45 13 -121 118 -46 62 -83 120 -83 128 0 8 7 32 16 53 40 96
-30 234 -145 286 -42 19 -161 37 -161 25z"/>
<path d="M1732 2220 c-18 -4 -35 -10 -37 -12 -3 -2 20 -60 50 -129 30 -68 55
-129 55 -136 0 -25 21 -22 87 13 82 44 93 57 93 104 0 53 -36 100 -100 132
-65 32 -103 39 -148 28z m126 -49 c83 -42 118 -115 75 -153 -25 -22 -102 -57
-107 -49 -15 24 -86 195 -86 206 0 22 73 19 118 -4z"/>
<path d="M1408 2135 c-27 -27 -55 -128 -45 -165 4 -16 -1 -23 -18 -30 -45 -17
-53 -45 -43 -150 22 -231 87 -350 248 -455 36 -24 121 -84 189 -134 68 -50
139 -95 157 -101 19 -7 34 -15 34 -18 0 -20 -243 -145 -350 -180 -36 -12 -110
-31 -165 -42 -55 -11 -116 -25 -135 -31 -40 -13 -192 -80 -200 -89 -3 -3 -25
-19 -50 -35 -45 -30 -45 -30 -200 -31 -85 0 -234 3 -330 7 -522 21 -500 21
-500 4 0 -10 10 -15 33 -15 17 -1 131 -5 252 -10 121 -5 324 -12 452 -16 l232
-7 94 57 c127 77 192 102 360 138 202 42 336 100 541 231 62 40 80 48 86 36 5
-8 34 -50 64 -94 55 -78 56 -81 56 -150 0 -92 14 -138 56 -185 50 -56 94 -73
170 -68 50 3 73 10 106 34 55 38 88 101 88 169 -1 99 -57 171 -154 197 -46 12
-51 18 -122 122 -41 59 -74 114 -74 120 0 6 16 33 35 60 40 56 45 96 15 126
-39 39 -61 36 -231 -36 -180 -77 -200 -93 -179 -145 7 -17 34 -46 59 -65 25
-20 50 -43 55 -51 15 -26 -95 -12 -137 18 -199 140 -360 259 -395 293 -53 50
-76 92 -101 188 -15 56 -41 228 -41 273 0 3 17 5 38 5 l37 0 0 83 c0 68 4 89
23 121 28 47 24 55 -10 21z m850 -721 c29 -20 28 -38 -9 -96 -17 -27 -31 -60
-31 -74 0 -14 31 -73 76 -139 42 -63 76 -117 76 -120 0 -2 -7 -2 -15 1 -23 9
-68 -13 -104 -51 -18 -19 -36 -35 -40 -35 -4 0 -13 15 -19 33 -18 48 -114 180
-139 192 -12 7 -49 37 -83 67 -66 62 -77 96 -37 116 41 20 242 105 267 113 35
10 33 11 58 -7z m117 -464 c13 0 25 5 27 12 6 18 65 -9 71 -33 3 -10 17 -23
31 -29 29 -10 44 -53 27 -73 -8 -10 -7 -19 3 -32 17 -24 3 -71 -25 -78 -10 -3
-23 -16 -28 -30 -9 -24 -71 -56 -71 -36 0 5 -11 9 -25 9 -14 0 -25 -4 -25 -9
0 -19 -62 12 -70 35 -6 14 -18 24 -29 24 -23 0 -53 61 -33 68 14 4 16 34 2 48
-15 15 1 55 26 65 13 4 24 17 24 27 0 19 62 56 68 41 2 -5 14 -9 27 -9z"/>
<path d="M1912 1921 l-81 -40 15 -37 c9 -20 13 -47 10 -60 -12 -47 -105 -73
-187 -54 -50 12 -53 12 -72 -11 -45 -56 25 -149 113 -149 42 0 405 183 421
211 27 51 -8 131 -73 165 -40 21 -56 18 -146 -25z m166 -25 c32 -31 41 -92 16
-111 -37 -28 -365 -185 -387 -185 -31 0 -83 34 -89 58 -10 38 6 47 84 44 125
-5 182 33 179 117 -1 55 -1 55 74 88 57 26 89 23 123 -11z"/>
<path d="M1939 1625 c-107 -53 -202 -105 -211 -116 -31 -37 -23 -86 21 -130
46 -47 77 -50 148 -15 26 13 107 49 178 81 72 31 140 68 153 82 39 43 23 130
-30 165 -51 33 -58 31 -259 -67z m251 33 c24 -26 33 -55 28 -89 -3 -25 -47
-50 -239 -137 -143 -65 -155 -69 -187 -50 -37 22 -57 58 -48 91 5 22 34 40
187 117 100 49 194 90 210 90 16 0 37 -9 49 -22z"/>
<path d="M2118 552 c-88 -132 -98 -153 -98 -210 0 -54 25 -100 73 -136 22 -16
43 -21 92 -21 71 0 103 17 143 75 25 37 30 115 11 153 -14 27 -150 237 -154
237 -1 0 -31 -44 -67 -98z m86 -4 c23 -32 20 -38 -19 -38 -37 0 -42 9 -25 41
14 25 25 24 44 -3z m62 -111 c29 -26 37 -42 41 -80 6 -54 -10 -87 -60 -117
-42 -26 -86 -25 -128 3 -59 39 -74 98 -43 163 20 43 56 63 112 64 34 0 49 -6
78 -33z"/>
<path d="M2125 405 c-35 -34 -34 -88 1 -120 57 -53 144 -16 144 60 0 49 -36
85 -85 85 -25 0 -44 -8 -60 -25z m98 -19 c36 -28 9 -96 -39 -96 -46 0 -68 48
-42 90 15 23 54 26 81 6z"/>
</g>
</svg>
